<mxfile host="app.diagrams.net" modified="2023-12-25T10:35:48.509Z" agent="Mozilla/5.0 (Macintosh; Intel Mac OS X 10_15_7) AppleWebKit/537.36 (KHTML, like Gecko) Chrome/120.0.0.0 Safari/537.36" etag="kyOUDD-LpbLuc_Lvv_Zj" version="22.1.11" type="google">
  <diagram name="ページ1" id="NAnFWdwo6tMcAK1HEhqf">
    <mxGraphModel grid="1" page="1" gridSize="10" guides="1" tooltips="1" connect="1" arrows="1" fold="1" pageScale="1" pageWidth="827" pageHeight="1169" math="0" shadow="0">
      <root>
        <mxCell id="0" />
        <mxCell id="1" parent="0" />
        <mxCell id="5ASRaqfis5RF9sTNQ5yP-3" style="rounded=1;orthogonalLoop=1;jettySize=auto;html=1;endArrow=none;endFill=0;" edge="1" parent="1" source="5ASRaqfis5RF9sTNQ5yP-1" target="5ASRaqfis5RF9sTNQ5yP-2">
          <mxGeometry relative="1" as="geometry" />
        </mxCell>
        <mxCell id="5ASRaqfis5RF9sTNQ5yP-6" value="REST API&lt;br&gt;OpenAPI Generator" style="edgeLabel;html=1;align=center;verticalAlign=middle;resizable=0;points=[];" connectable="0" vertex="1" parent="5ASRaqfis5RF9sTNQ5yP-3">
          <mxGeometry x="0.2" y="-4" relative="1" as="geometry">
            <mxPoint x="-8" y="20" as="offset" />
          </mxGeometry>
        </mxCell>
        <mxCell id="5ASRaqfis5RF9sTNQ5yP-1" value="VSSA_React" style="rounded=0;whiteSpace=wrap;html=1;" vertex="1" parent="1">
          <mxGeometry x="90" y="246" width="120" height="60" as="geometry" />
        </mxCell>
        <mxCell id="5ASRaqfis5RF9sTNQ5yP-8" style="orthogonalLoop=1;jettySize=auto;html=1;endArrow=none;endFill=0;rounded=0;" edge="1" parent="1" source="5ASRaqfis5RF9sTNQ5yP-5" target="5ASRaqfis5RF9sTNQ5yP-2">
          <mxGeometry relative="1" as="geometry" />
        </mxCell>
        <mxCell id="5ASRaqfis5RF9sTNQ5yP-9" value="REST API" style="edgeLabel;html=1;align=center;verticalAlign=middle;resizable=0;points=[];" connectable="0" vertex="1" parent="5ASRaqfis5RF9sTNQ5yP-8">
          <mxGeometry x="-0.2807" y="1" relative="1" as="geometry">
            <mxPoint x="-23" y="141" as="offset" />
          </mxGeometry>
        </mxCell>
        <mxCell id="5ASRaqfis5RF9sTNQ5yP-7" value="" style="group" connectable="0" vertex="1" parent="1">
          <mxGeometry x="340" y="246" width="120" height="88" as="geometry" />
        </mxCell>
        <mxCell id="5ASRaqfis5RF9sTNQ5yP-2" value="VSSA_aggregation" style="rounded=0;whiteSpace=wrap;html=1;" vertex="1" parent="5ASRaqfis5RF9sTNQ5yP-7">
          <mxGeometry width="120" height="60" as="geometry" />
        </mxCell>
        <mxCell id="5ASRaqfis5RF9sTNQ5yP-4" value="Auth: AWS cognito" style="text;html=1;align=center;verticalAlign=middle;resizable=0;points=[];autosize=1;strokeColor=none;fillColor=none;" vertex="1" parent="5ASRaqfis5RF9sTNQ5yP-7">
          <mxGeometry y="58" width="120" height="30" as="geometry" />
        </mxCell>
        <mxCell id="5ASRaqfis5RF9sTNQ5yP-13" style="orthogonalLoop=1;jettySize=auto;html=1;entryX=0;entryY=0.5;entryDx=0;entryDy=0;endArrow=none;endFill=0;rounded=0;" edge="1" parent="1" source="5ASRaqfis5RF9sTNQ5yP-2" target="5ASRaqfis5RF9sTNQ5yP-10">
          <mxGeometry relative="1" as="geometry" />
        </mxCell>
        <mxCell id="5ASRaqfis5RF9sTNQ5yP-14" value="" style="group" connectable="0" vertex="1" parent="1">
          <mxGeometry x="590" y="156" width="120" height="160" as="geometry" />
        </mxCell>
        <mxCell id="5ASRaqfis5RF9sTNQ5yP-5" value="VSSA Backend API" style="rounded=0;whiteSpace=wrap;html=1;" vertex="1" parent="5ASRaqfis5RF9sTNQ5yP-14">
          <mxGeometry width="120" height="60" as="geometry" />
        </mxCell>
        <mxCell id="5ASRaqfis5RF9sTNQ5yP-10" value="Compter Vision API&lt;br&gt;(Coming soon..)" style="rounded=0;whiteSpace=wrap;html=1;" vertex="1" parent="5ASRaqfis5RF9sTNQ5yP-14">
          <mxGeometry y="90" width="120" height="60" as="geometry" />
        </mxCell>
        <mxCell id="5ASRaqfis5RF9sTNQ5yP-16" value="API&lt;br&gt;(Coming soon..)" style="rounded=0;whiteSpace=wrap;html=1;" vertex="1" parent="1">
          <mxGeometry x="590" y="336" width="120" height="60" as="geometry" />
        </mxCell>
        <mxCell id="5ASRaqfis5RF9sTNQ5yP-17" style="rounded=0;orthogonalLoop=1;jettySize=auto;html=1;entryX=0;entryY=0.5;entryDx=0;entryDy=0;endArrow=none;endFill=0;" edge="1" parent="1" source="5ASRaqfis5RF9sTNQ5yP-2" target="5ASRaqfis5RF9sTNQ5yP-16">
          <mxGeometry relative="1" as="geometry" />
        </mxCell>
      </root>
    </mxGraphModel>
  </diagram>
</mxfile>
